<mxfile host="Electron" modified="2024-01-07T12:56:42.667Z" agent="Mozilla/5.0 (Windows NT 10.0; Win64; x64) AppleWebKit/537.36 (KHTML, like Gecko) draw.io/22.1.16 Chrome/120.0.6099.109 Electron/28.1.0 Safari/537.36" etag="RkhD_TT7d77H7rPBZEJF" version="22.1.16" type="device">
  <diagram name="Page-1" id="FIoj14Ah0M4KKi89Oqow">
    <mxGraphModel dx="1632" dy="830" grid="0" gridSize="10" guides="1" tooltips="1" connect="1" arrows="1" fold="1" page="1" pageScale="1" pageWidth="1700" pageHeight="1100" math="0" shadow="0">
      <root>
        <mxCell id="0" />
        <mxCell id="1" parent="0" />
        <mxCell id="6Ki7qsOhkE2Jg0H65KlY-1" value="&lt;font style=&quot;font-size: 29px;&quot;&gt;Keycloak&lt;/font&gt;" style="rounded=0;whiteSpace=wrap;html=1;" parent="1" vertex="1">
          <mxGeometry x="630" y="300" width="200" height="160" as="geometry" />
        </mxCell>
        <mxCell id="6Ki7qsOhkE2Jg0H65KlY-2" value="&lt;font style=&quot;font-size: 21px;&quot;&gt;UI&lt;br&gt;(React + Bootstrap) - aplicatie test&lt;/font&gt;" style="rounded=0;whiteSpace=wrap;html=1;" parent="1" vertex="1">
          <mxGeometry x="361" y="2" width="230" height="180" as="geometry" />
        </mxCell>
        <mxCell id="6Ki7qsOhkE2Jg0H65KlY-3" value="&lt;font style=&quot;font-size: 26px;&quot;&gt;&lt;font style=&quot;font-size: 26px;&quot;&gt;Backend&lt;br&gt;(Java) -&lt;br&gt;&lt;/font&gt;aplicatie test&lt;/font&gt;" style="rounded=0;whiteSpace=wrap;html=1;" parent="1" vertex="1">
          <mxGeometry x="928" width="250" height="180" as="geometry" />
        </mxCell>
        <mxCell id="6Ki7qsOhkE2Jg0H65KlY-4" value="&lt;font style=&quot;font-size: 28px;&quot;&gt;NEXUS&lt;/font&gt;" style="rounded=0;whiteSpace=wrap;html=1;" parent="1" vertex="1">
          <mxGeometry x="622.5" y="580" width="215" height="160" as="geometry" />
        </mxCell>
        <mxCell id="6Ki7qsOhkE2Jg0H65KlY-5" value="" style="sketch=0;outlineConnect=0;fontColor=#232F3E;gradientColor=none;fillColor=#232F3D;strokeColor=none;dashed=0;verticalLabelPosition=bottom;verticalAlign=top;align=center;html=1;fontSize=12;fontStyle=0;aspect=fixed;pointerEvents=1;shape=mxgraph.aws4.saml_token;" parent="1" vertex="1">
          <mxGeometry x="270" y="590" width="128" height="128" as="geometry" />
        </mxCell>
        <mxCell id="6Ki7qsOhkE2Jg0H65KlY-6" value="" style="strokeColor=#dddddd;shadow=1;strokeWidth=1;rounded=1;absoluteArcSize=1;arcSize=2;fontSize=14;" parent="1" vertex="1">
          <mxGeometry x="1020" y="610" width="120" height="60" as="geometry" />
        </mxCell>
        <mxCell id="6Ki7qsOhkE2Jg0H65KlY-7" value="Firebase" style="sketch=0;dashed=0;connectable=0;html=1;fillColor=#5184F3;strokeColor=none;shape=mxgraph.gcp2.firebase;part=1;labelPosition=right;verticalLabelPosition=middle;align=left;verticalAlign=middle;spacingLeft=5;fontColor=#999999;fontSize=12;" parent="6Ki7qsOhkE2Jg0H65KlY-6" vertex="1">
          <mxGeometry width="32.4" height="45" relative="1" as="geometry">
            <mxPoint x="5" y="7" as="offset" />
          </mxGeometry>
        </mxCell>
        <mxCell id="6Ki7qsOhkE2Jg0H65KlY-8" value="" style="verticalLabelPosition=bottom;verticalAlign=top;html=1;shadow=0;dashed=0;strokeWidth=1;shape=mxgraph.android.phone2;strokeColor=#6c8ebf;fillColor=#dae8fc;" parent="1" vertex="1">
          <mxGeometry x="1250" y="150" width="200" height="390" as="geometry" />
        </mxCell>
        <mxCell id="6Ki7qsOhkE2Jg0H65KlY-9" value="" style="image;aspect=fixed;perimeter=ellipsePerimeter;html=1;align=center;shadow=0;dashed=0;spacingTop=3;image=img/lib/active_directory/active_directory.svg;" parent="1" vertex="1">
          <mxGeometry x="640" y="300" width="70" height="59.5" as="geometry" />
        </mxCell>
        <mxCell id="6Ki7qsOhkE2Jg0H65KlY-10" value="Actor" style="shape=umlActor;verticalLabelPosition=bottom;verticalAlign=top;html=1;outlineConnect=0;" parent="1" vertex="1">
          <mxGeometry x="100" y="300" width="80" height="150" as="geometry" />
        </mxCell>
        <mxCell id="6Ki7qsOhkE2Jg0H65KlY-13" value="" style="endArrow=classic;startArrow=classic;html=1;rounded=0;entryX=-0.001;entryY=0.598;entryDx=0;entryDy=0;entryPerimeter=0;fillColor=#dae8fc;strokeColor=#6c8ebf;strokeWidth=7;" parent="1" source="6Ki7qsOhkE2Jg0H65KlY-10" target="6Ki7qsOhkE2Jg0H65KlY-1" edge="1">
          <mxGeometry width="50" height="50" relative="1" as="geometry">
            <mxPoint x="150" y="390" as="sourcePoint" />
            <mxPoint x="200" y="340" as="targetPoint" />
          </mxGeometry>
        </mxCell>
        <mxCell id="6Ki7qsOhkE2Jg0H65KlY-15" value="" style="endArrow=classic;startArrow=classic;html=1;rounded=0;entryX=0.004;entryY=0.957;entryDx=0;entryDy=0;entryPerimeter=0;fillColor=#dae8fc;strokeColor=#6c8ebf;strokeWidth=7;" parent="1" target="6Ki7qsOhkE2Jg0H65KlY-2" edge="1">
          <mxGeometry width="50" height="50" relative="1" as="geometry">
            <mxPoint x="180" y="370" as="sourcePoint" />
            <mxPoint x="230" y="320" as="targetPoint" />
          </mxGeometry>
        </mxCell>
        <mxCell id="6Ki7qsOhkE2Jg0H65KlY-16" value="" style="endArrow=classic;startArrow=classic;html=1;rounded=0;entryX=0;entryY=0.618;entryDx=0;entryDy=0;entryPerimeter=0;exitX=1.009;exitY=0.618;exitDx=0;exitDy=0;exitPerimeter=0;fillColor=#dae8fc;strokeColor=#6c8ebf;strokeWidth=7;" parent="1" source="6Ki7qsOhkE2Jg0H65KlY-2" target="6Ki7qsOhkE2Jg0H65KlY-3" edge="1">
          <mxGeometry width="50" height="50" relative="1" as="geometry">
            <mxPoint x="620" y="170" as="sourcePoint" />
            <mxPoint x="670" y="120" as="targetPoint" />
          </mxGeometry>
        </mxCell>
        <mxCell id="6Ki7qsOhkE2Jg0H65KlY-17" value="" style="endArrow=classic;html=1;rounded=0;entryX=0;entryY=0.5;entryDx=0;entryDy=0;" parent="1" target="6Ki7qsOhkE2Jg0H65KlY-6" edge="1">
          <mxGeometry width="50" height="50" relative="1" as="geometry">
            <mxPoint x="830" y="460" as="sourcePoint" />
            <mxPoint x="880" y="410" as="targetPoint" />
          </mxGeometry>
        </mxCell>
        <mxCell id="6Ki7qsOhkE2Jg0H65KlY-18" value="" style="endArrow=classic;html=1;rounded=0;entryX=0.472;entryY=1.009;entryDx=0;entryDy=0;entryPerimeter=0;" parent="1" target="6Ki7qsOhkE2Jg0H65KlY-8" edge="1">
          <mxGeometry width="50" height="50" relative="1" as="geometry">
            <mxPoint x="1140" y="650" as="sourcePoint" />
            <mxPoint x="1190" y="600" as="targetPoint" />
          </mxGeometry>
        </mxCell>
        <mxCell id="6Ki7qsOhkE2Jg0H65KlY-19" value="" style="endArrow=classic;html=1;rounded=0;exitX=-0.001;exitY=0.53;exitDx=0;exitDy=0;exitPerimeter=0;entryX=0.999;entryY=0.376;entryDx=0;entryDy=0;entryPerimeter=0;" parent="1" source="6Ki7qsOhkE2Jg0H65KlY-8" target="6Ki7qsOhkE2Jg0H65KlY-1" edge="1">
          <mxGeometry width="50" height="50" relative="1" as="geometry">
            <mxPoint x="1060" y="400" as="sourcePoint" />
            <mxPoint x="1110" y="350" as="targetPoint" />
          </mxGeometry>
        </mxCell>
        <mxCell id="6Ki7qsOhkE2Jg0H65KlY-20" value="" style="endArrow=classic;startArrow=classic;html=1;rounded=0;entryX=0.462;entryY=1.007;entryDx=0;entryDy=0;entryPerimeter=0;fillColor=#dae8fc;strokeColor=#6c8ebf;strokeWidth=7;" parent="1" target="6Ki7qsOhkE2Jg0H65KlY-3" edge="1">
          <mxGeometry width="50" height="50" relative="1" as="geometry">
            <mxPoint x="830" y="300" as="sourcePoint" />
            <mxPoint x="880" y="250" as="targetPoint" />
          </mxGeometry>
        </mxCell>
        <mxCell id="6Ki7qsOhkE2Jg0H65KlY-22" value="" style="endArrow=classic;html=1;rounded=0;fillColor=#f8cecc;strokeColor=#b85450;strokeWidth=7;" parent="1" source="6Ki7qsOhkE2Jg0H65KlY-10" target="6Ki7qsOhkE2Jg0H65KlY-5" edge="1">
          <mxGeometry width="50" height="50" relative="1" as="geometry">
            <mxPoint x="179" y="379" as="sourcePoint" />
            <mxPoint x="230" y="380" as="targetPoint" />
          </mxGeometry>
        </mxCell>
        <mxCell id="6Ki7qsOhkE2Jg0H65KlY-23" value="" style="endArrow=classic;html=1;rounded=0;entryX=0.014;entryY=0.376;entryDx=0;entryDy=0;entryPerimeter=0;fillColor=#f8cecc;strokeColor=#b85450;strokeWidth=7;" parent="1" target="6Ki7qsOhkE2Jg0H65KlY-4" edge="1">
          <mxGeometry width="50" height="50" relative="1" as="geometry">
            <mxPoint x="400" y="640" as="sourcePoint" />
            <mxPoint x="450" y="600" as="targetPoint" />
          </mxGeometry>
        </mxCell>
        <mxCell id="6Ki7qsOhkE2Jg0H65KlY-25" value="&lt;b&gt;&lt;font style=&quot;font-size: 31px;&quot;&gt;2&lt;/font&gt;&lt;/b&gt;" style="text;html=1;align=center;verticalAlign=middle;resizable=0;points=[];autosize=1;strokeColor=#b85450;fillColor=#f8cecc;" parent="1" vertex="1">
          <mxGeometry x="246" y="460" width="35" height="49" as="geometry" />
        </mxCell>
        <mxCell id="6Ki7qsOhkE2Jg0H65KlY-26" value="&lt;b&gt;&lt;font style=&quot;font-size: 31px;&quot;&gt;3&lt;/font&gt;&lt;/b&gt;" style="text;html=1;align=center;verticalAlign=middle;resizable=0;points=[];autosize=1;strokeColor=#b85450;fillColor=#f8cecc;" parent="1" vertex="1">
          <mxGeometry x="472" y="567" width="35" height="49" as="geometry" />
        </mxCell>
        <mxCell id="6Ki7qsOhkE2Jg0H65KlY-27" value="&lt;b&gt;&lt;font style=&quot;font-size: 31px;&quot;&gt;4&lt;/font&gt;&lt;/b&gt;" style="text;html=1;align=center;verticalAlign=middle;resizable=0;points=[];autosize=1;strokeColor=#b85450;fillColor=#f8cecc;" parent="1" vertex="1">
          <mxGeometry x="733" y="498" width="35" height="49" as="geometry" />
        </mxCell>
        <mxCell id="6Ki7qsOhkE2Jg0H65KlY-29" value="&lt;b&gt;&lt;font style=&quot;font-size: 31px;&quot;&gt;1&lt;/font&gt;&lt;/b&gt;" style="text;html=1;align=center;verticalAlign=middle;resizable=0;points=[];autosize=1;strokeColor=#b85450;fillColor=#f8cecc;" parent="1" vertex="1">
          <mxGeometry x="319" y="320.5" width="35" height="49" as="geometry" />
        </mxCell>
        <mxCell id="6Ki7qsOhkE2Jg0H65KlY-30" value="" style="endArrow=classic;startArrow=classic;html=1;rounded=0;exitX=0.35;exitY=0.008;exitDx=0;exitDy=0;exitPerimeter=0;entryX=0.335;entryY=1;entryDx=0;entryDy=0;entryPerimeter=0;fillColor=#f8cecc;strokeColor=#b85450;strokeWidth=7;" parent="1" source="6Ki7qsOhkE2Jg0H65KlY-4" target="6Ki7qsOhkE2Jg0H65KlY-1" edge="1">
          <mxGeometry width="50" height="50" relative="1" as="geometry">
            <mxPoint x="647" y="552" as="sourcePoint" />
            <mxPoint x="697" y="502" as="targetPoint" />
          </mxGeometry>
        </mxCell>
        <mxCell id="6Ki7qsOhkE2Jg0H65KlY-35" value="&lt;b&gt;&lt;font style=&quot;font-size: 31px;&quot;&gt;1&lt;/font&gt;&lt;/b&gt;" style="text;html=1;align=center;verticalAlign=middle;resizable=0;points=[];autosize=1;strokeColor=#82b366;fillColor=#d5e8d4;" parent="1" vertex="1">
          <mxGeometry x="371" y="320.5" width="35" height="49" as="geometry" />
        </mxCell>
        <mxCell id="6Ki7qsOhkE2Jg0H65KlY-36" value="&lt;b&gt;&lt;font style=&quot;font-size: 16px;&quot;&gt;PostgreSQL&lt;/font&gt;&lt;/b&gt;" style="shape=cylinder3;whiteSpace=wrap;html=1;boundedLbl=1;backgroundOutline=1;size=15;" parent="1" vertex="1">
          <mxGeometry x="1038" y="381" width="92" height="133" as="geometry" />
        </mxCell>
        <mxCell id="6Ki7qsOhkE2Jg0H65KlY-37" value="" style="endArrow=classic;startArrow=classic;html=1;rounded=0;entryX=0;entryY=0.5;entryDx=0;entryDy=0;entryPerimeter=0;" parent="1" target="6Ki7qsOhkE2Jg0H65KlY-36" edge="1">
          <mxGeometry width="50" height="50" relative="1" as="geometry">
            <mxPoint x="831" y="422" as="sourcePoint" />
            <mxPoint x="879" y="386" as="targetPoint" />
          </mxGeometry>
        </mxCell>
        <mxCell id="6Ki7qsOhkE2Jg0H65KlY-38" value="&lt;b&gt;&lt;font style=&quot;font-size: 31px;&quot;&gt;3&lt;/font&gt;&lt;/b&gt;" style="text;html=1;align=center;verticalAlign=middle;resizable=0;points=[];autosize=1;strokeColor=#82b366;fillColor=#d5e8d4;" parent="1" vertex="1">
          <mxGeometry x="887" y="557" width="35" height="49" as="geometry" />
        </mxCell>
        <mxCell id="6Ki7qsOhkE2Jg0H65KlY-39" value="&lt;b&gt;&lt;font style=&quot;font-size: 31px;&quot;&gt;4&lt;/font&gt;&lt;/b&gt;" style="text;html=1;align=center;verticalAlign=middle;resizable=0;points=[];autosize=1;strokeColor=#82b366;fillColor=#d5e8d4;" parent="1" vertex="1">
          <mxGeometry x="1215" y="540" width="35" height="49" as="geometry" />
        </mxCell>
        <mxCell id="6Ki7qsOhkE2Jg0H65KlY-40" value="&lt;b&gt;&lt;font style=&quot;font-size: 31px;&quot;&gt;2&lt;/font&gt;&lt;/b&gt;" style="text;html=1;align=center;verticalAlign=middle;resizable=0;points=[];autosize=1;strokeColor=#82b366;fillColor=#d5e8d4;" parent="1" vertex="1">
          <mxGeometry x="917" y="381" width="35" height="49" as="geometry" />
        </mxCell>
        <mxCell id="6Ki7qsOhkE2Jg0H65KlY-41" value="&lt;b&gt;&lt;font style=&quot;font-size: 31px;&quot;&gt;5&lt;/font&gt;&lt;/b&gt;" style="text;html=1;align=center;verticalAlign=middle;resizable=0;points=[];autosize=1;strokeColor=#82b366;fillColor=#d5e8d4;" parent="1" vertex="1">
          <mxGeometry x="1028" y="298" width="35" height="49" as="geometry" />
        </mxCell>
        <mxCell id="6Ki7qsOhkE2Jg0H65KlY-47" value="&lt;b&gt;&lt;font style=&quot;font-size: 31px;&quot;&gt;1&lt;/font&gt;&lt;/b&gt;" style="text;html=1;align=center;verticalAlign=middle;resizable=0;points=[];autosize=1;strokeColor=#d6b656;fillColor=#fff2cc;" parent="1" vertex="1">
          <mxGeometry x="423" y="323" width="35" height="49" as="geometry" />
        </mxCell>
        <mxCell id="6Ki7qsOhkE2Jg0H65KlY-48" value="&lt;b&gt;&lt;font style=&quot;font-size: 31px;&quot;&gt;2&lt;/font&gt;&lt;/b&gt;" style="text;html=1;align=center;verticalAlign=middle;resizable=0;points=[];autosize=1;strokeColor=#d6b656;fillColor=#fff2cc;" parent="1" vertex="1">
          <mxGeometry x="1087" y="298" width="35" height="49" as="geometry" />
        </mxCell>
        <mxCell id="6Ki7qsOhkE2Jg0H65KlY-49" value="&lt;font style=&quot;font-size: 22px;&quot;&gt;Notification&lt;/font&gt;" style="shape=callout;whiteSpace=wrap;html=1;perimeter=calloutPerimeter;fillColor=#d5e8d4;strokeColor=#82b366;" parent="1" vertex="1">
          <mxGeometry x="1288" y="210" width="120" height="80" as="geometry" />
        </mxCell>
        <mxCell id="6Ki7qsOhkE2Jg0H65KlY-51" value="&lt;font style=&quot;font-size: 18px;&quot;&gt;TOTP codes&lt;/font&gt;" style="whiteSpace=wrap;html=1;aspect=fixed;fillColor=#fff2cc;strokeColor=#d6b656;" parent="1" vertex="1">
          <mxGeometry x="1302" y="354" width="106" height="106" as="geometry" />
        </mxCell>
      </root>
    </mxGraphModel>
  </diagram>
</mxfile>
